<svg width="100%" viewBox="0 0 700 530" role="img" xmlns="http://www.w3.org/2000/svg">
<title>Northeast Executive Retreats lighthouse logo</title>
<desc>A navy and gold illustration of a lighthouse on rocky shore with ocean waves and stars</desc>

<rect width="680" height="520" fill="#0d1f35"/>

<circle cx="340" cy="130" r="90" fill="#1a3a5c" opacity="0.3"/>
<circle cx="340" cy="130" r="60" fill="#1a3a5c" opacity="0.2"/>

<circle cx="200" cy="80" r="2" fill="#C9A84C" opacity="0.6"/>
<circle cx="260" cy="55" r="1.5" fill="#C9A84C" opacity="0.5"/>
<circle cx="310" cy="40" r="1" fill="#C9A84C" opacity="0.7"/>
<circle cx="400" cy="50" r="1.5" fill="#C9A84C" opacity="0.5"/>
<circle cx="460" cy="70" r="2" fill="#C9A84C" opacity="0.4"/>
<circle cx="500" cy="45" r="1" fill="#C9A84C" opacity="0.6"/>
<circle cx="150" cy="110" r="1" fill="#C9A84C" opacity="0.4"/>
<circle cx="530" cy="90" r="1.5" fill="#C9A84C" opacity="0.5"/>
<circle cx="580" cy="60" r="1" fill="#C9A84C" opacity="0.6"/>
<circle cx="100" cy="65" r="1.5" fill="#C9A84C" opacity="0.4"/>
<circle cx="600" cy="110" r="1" fill="#C9A84C" opacity="0.5"/>
<circle cx="240" cy="95" r="1" fill="#C9A84C" opacity="0.3"/>
<circle cx="440" cy="35" r="1" fill="#C9A84C" opacity="0.5"/>

<path d="M-10 300 Q80 265 180 280 Q280 295 340 270 Q400 245 500 265 Q590 280 690 255 L690 520 L-10 520 Z" fill="#0a4a6e" opacity="0.6"/>
<path d="M-10 320 Q100 290 200 305 Q300 320 340 300 Q390 280 480 295 Q570 310 690 285 L690 520 L-10 520 Z" fill="#0d5a82" opacity="0.5"/>

<ellipse cx="310" cy="395" rx="55" ry="22" fill="#2a1f14"/>
<ellipse cx="370" cy="400" rx="45" ry="18" fill="#241a10"/>
<ellipse cx="250" cy="405" rx="40" ry="16" fill="#2e2318"/>
<ellipse cx="420" cy="408" rx="38" ry="14" fill="#261c12"/>
<ellipse cx="300" cy="410" rx="60" ry="20" fill="#1e1610"/>
<ellipse cx="355" cy="415" rx="70" ry="18" fill="#1a1208"/>
<ellipse cx="290" cy="418" rx="50" ry="15" fill="#221810"/>

<ellipse cx="310" cy="393" rx="20" ry="8" fill="#8a7a6a" opacity="0.4"/>
<ellipse cx="368" cy="399" rx="16" ry="6" fill="#7a6a5a" opacity="0.3"/>
<ellipse cx="248" cy="403" rx="14" ry="5" fill="#8a7a6a" opacity="0.3"/>

<polygon points="325,395 318,230 322,230 322,395" fill="#e8dcc8"/>
<polygon points="325,395 318,230 358,230 351,395" fill="#d4c4a8"/>

<rect x="316" y="390" width="40" height="10" rx="2" fill="#b8a888"/>
<rect x="313" y="370" width="46" height="8" rx="1" fill="#b8a888"/>
<rect x="313" y="350" width="46" height="8" rx="1" fill="#b8a888"/>
<rect x="315" y="330" width="42" height="8" rx="1" fill="#b8a888"/>
<rect x="317" y="310" width="38" height="8" rx="1" fill="#b8a888"/>
<rect x="319" y="290" width="34" height="8" rx="1" fill="#b8a888"/>
<rect x="320" y="270" width="32" height="8" rx="1" fill="#b8a888"/>
<rect x="321" y="250" width="30" height="8" rx="1" fill="#b8a888"/>

<rect x="325" y="375" width="6" height="15" rx="1" fill="#7a6a50" opacity="0.5"/>
<rect x="336" y="355" width="5" height="13" rx="1" fill="#7a6a50" opacity="0.5"/>
<rect x="326" y="335" width="5" height="13" rx="1" fill="#7a6a50" opacity="0.5"/>
<rect x="335" y="315" width="5" height="13" rx="1" fill="#7a6a50" opacity="0.5"/>
<rect x="327" y="295" width="4" height="11" rx="1" fill="#7a6a50" opacity="0.5"/>
<rect x="334" y="275" width="4" height="11" rx="1" fill="#7a6a50" opacity="0.5"/>

<rect x="320" y="218" width="32" height="18" rx="2" fill="#C9A84C"/>
<rect x="322" y="220" width="28" height="14" rx="1" fill="#e8c870"/>

<rect x="315" y="208" width="42" height="12" rx="2" fill="#9a7a30"/>
<rect x="310" y="202" width="52" height="10" rx="2" fill="#C9A84C"/>

<path d="M320,202 L336,155 L352,202 Z" fill="#C9A84C"/>
<circle cx="336" cy="150" r="8" fill="#fff8e0"/>
<circle cx="336" cy="150" r="5" fill="#C9A84C"/>

<line x1="336" y1="130" x2="336" y2="115" stroke="#C9A84C" stroke-width="2"/>
<line x1="325" y1="138" x2="312" y2="128" stroke="#C9A84C" stroke-width="1.5"/>
<line x1="347" y1="138" x2="360" y2="128" stroke="#C9A84C" stroke-width="1.5"/>
<line x1="322" y1="148" x2="308" y2="148" stroke="#C9A84C" stroke-width="1.5"/>
<line x1="350" y1="148" x2="364" y2="148" stroke="#C9A84C" stroke-width="1.5"/>

<path d="M336 140 Q370 175 390 190" fill="none" stroke="#C9A84C" stroke-width="1" opacity="0.25"/>
<path d="M336 140 Q380 160 410 175" fill="none" stroke="#C9A84C" stroke-width="0.8" opacity="0.18"/>
<path d="M336 140 Q360 155 390 165" fill="none" stroke="#C9A84C" stroke-width="0.8" opacity="0.15"/>

<path d="M-10 345 Q60 325 130 340 Q180 350 220 335 Q260 320 300 335 Q320 342 340 330" fill="none" stroke="#4a9abf" stroke-width="2" opacity="0.7"/>
<path d="M340 330 Q370 318 410 328 Q460 340 520 322 Q580 305 690 325" fill="none" stroke="#4a9abf" stroke-width="2" opacity="0.7"/>

<path d="M-10 365 Q70 348 150 360 Q230 372 300 355 Q320 349 340 356" fill="none" stroke="#5aaacf" stroke-width="1.5" opacity="0.5"/>
<path d="M340 356 Q380 348 430 360 Q500 372 580 350 Q630 338 690 348" fill="none" stroke="#5aaacf" stroke-width="1.5" opacity="0.5"/>

<path d="M-10 380 Q50 368 120 378 Q200 390 270 372 Q310 362 340 370" fill="none" stroke="#6abcdf" stroke-width="1.2" opacity="0.4"/>
<path d="M340 370 Q390 362 450 374 Q530 388 610 365 Q650 355 690 365" fill="none" stroke="#6abcdf" stroke-width="1.2" opacity="0.4"/>

<path d="M60 460 Q90 445 120 455 Q150 465 180 450 Q210 435 240 448 Q255 455 260 460 L260 520 L60 520 Z" fill="#1a3a5c" opacity="0.8"/>
<path d="M420 455 Q460 438 500 450 Q540 462 580 444 Q610 432 640 445 L690 455 L690 520 L420 520 Z" fill="#1a3a5c" opacity="0.7"/>

<path d="M-10 400 Q100 385 200 398 Q280 408 340 392 Q400 376 490 390 Q570 402 690 388 L690 520 L-10 520 Z" fill="#0d2d45"/>
<path d="M-10 420 Q80 408 170 418 Q260 428 340 414 Q420 400 510 412 Q590 422 690 410 L690 520 L-10 520 Z" fill="#0a2438"/>
<path d="M-10 445 Q90 435 190 443 Q290 451 340 438 Q400 425 500 435 Q600 445 690 433 L690 520 L-10 520 Z" fill="#081c2e"/>
<path d="M-10 470 Q90 462 190 470 Q290 478 340 465 Q400 452 500 462 Q600 472 690 462 L690 520 L-10 520 Z" fill="#060f1a"/>

</svg>
